<svg xmlns="http://www.w3.org/2000/svg" width="24" height="24" viewBox="0 0 24 24">
  <g id="Group_11378" data-name="Group 11378" transform="translate(-7171 16605)">
    <g id="Layer_2" data-name="Layer 2" transform="translate(7171 -16605)">
      <g id="eye">
        <rect id="Rectangle_4203" data-name="Rectangle 4203" width="24" height="24" opacity="0"/>
        <path id="Path_34226" data-name="Path 34226" d="M2.13,11.5C2.77,10.39,6.29,4.82,12.27,5c5.53.14,8.73,5,9.6,6.5a1,1,0,0,1,0,1c-.63,1.09-4,6.5-9.89,6.5h-.25c-5.53-.14-8.74-5-9.6-6.5A1,1,0,0,1,2.13,11.5ZM11.78,17c4.31.1,7.12-3.59,8-5-1-1.61-3.61-4.9-7.61-5-4.29-.11-7.11,3.59-8,5,1.03,1.61,3.61,4.9,7.61,5Z"/>
        <path id="Path_34227" data-name="Path 34227" d="M12,8.5A3.5,3.5,0,1,1,8.5,12,3.5,3.5,0,0,1,12,8.5Zm0,5A1.5,1.5,0,1,0,10.5,12,1.5,1.5,0,0,0,12,13.5Z" transform="translate(0)"/>
      </g>
    </g>
  </g>
</svg>
