<svg xmlns="http://www.w3.org/2000/svg" width="432.424" height="559.599" viewBox="0 0 432.424 559.599">
  <g id="Group_5809" data-name="Group 5809" transform="translate(-11.531 218.099)">
    <path id="Path_1771" data-name="Path 1771" d="M12.062,433.531c-.782-1.449-.469-2.856-.469-4.208-.018-34.841-.09-69.682.007-104.523.1-36.14,9.734-69.433,30.547-99.176a168.21,168.21,0,0,1,116.127-70.789,203.627,203.627,0,0,1,26.234-1.528c28.825-.162,57.651,0,86.475-.078,29.437-.078,57.407,5.981,83.41,20.005a169.76,169.76,0,0,1,86.04,115.333,173.308,173.308,0,0,1,3.438,35.094c.147,35.466.057,70.934.045,106.4,0,1.107.248,2.264-.5,3.47ZM410.648,400.64c.8-1.413.475-2.69.476-3.91.022-23.816.126-47.632-.03-71.446a149.352,149.352,0,0,0-4.118-35.739c-7.413-29.387-22.841-53.781-46.225-72.87-25.365-20.707-54.778-30.574-87.5-30.595-30.333-.02-60.667-.066-91,.022a140.11,140.11,0,0,0-43.974,6.758,136.44,136.44,0,0,0-84.414,79.9c-7.114,18-9.538,36.724-9.508,55.91.035,22.562,0,45.124.026,67.686,0,1.344-.332,2.744.45,4.288Z" transform="translate(0 -92.031)" fill="#fff"/>
    <path id="Path_1772" data-name="Path 1772" d="M255.954,43.025C184.105,42.885,125.222-16.2,125.636-87.74,126.055-160,184.6-218.409,256.3-218.1c71.843.313,130.1,58.739,130.133,130.512C386.464-15.738,327.622,43.164,255.954,43.025Zm97.7-130.447c.238-53.548-43.3-97.374-97.21-97.858-53.675-.481-98.1,43.829-98.04,97.777a97.953,97.953,0,0,0,97.4,97.719C309.25,10.632,353.417-33.438,353.656-87.422Z" transform="translate(-28.28)" fill="#fff"/>
  </g>
</svg>
