<svg xmlns="http://www.w3.org/2000/svg" width="24" height="24" viewBox="0 0 24 24">
  <g id="Group_11377" data-name="Group 11377" transform="translate(-7136 16605)">
    <g id="Layer_2" data-name="Layer 2" transform="translate(7136 -16605)">
      <g id="eye-off">
        <rect id="Rectangle_4202" data-name="Rectangle 4202" width="24" height="24" opacity="0"/>
        <path id="Path_34223" data-name="Path 34223" d="M19.292,3.29a1,1,0,0,1,1.42,1.42l-5.63,5.63a3.5,3.5,0,0,1-4.74,4.74l-5.63,5.63a1,1,0,1,1-1.42-1.42ZM12,13.5A1.5,1.5,0,0,0,13.5,12v-.07l-1.56,1.56Z" transform="translate(-0.002)"/>
        <path id="Path_34224" data-name="Path 34224" d="M5.276,17c4.3.1,7.12-3.59,8-5a13.7,13.7,0,0,0-2.24-2.72L12.5,7.87a15.89,15.89,0,0,1,2.87,3.63,1,1,0,0,1,0,1c-.63,1.09-4,6.5-9.89,6.5h-.25A9.48,9.48,0,0,1,2,18.33l1.58-1.58a7.74,7.74,0,0,0,1.7.25Z" transform="translate(6.504)"/>
        <path id="Path_34225" data-name="Path 34225" d="M8.655,11.5c.64-1.11,4.17-6.68,10.14-6.5a9.48,9.48,0,0,1,3.23.67l-1.58,1.58a7.74,7.74,0,0,0-1.7-.25c-4.29-.11-7.11,3.59-8,5a13.7,13.7,0,0,0,2.29,2.72l-1.51,1.41a15.89,15.89,0,0,1-2.91-3.63,1,1,0,0,1,.04-1Z" transform="translate(-6.525)"/>
      </g>
    </g>
  </g>
</svg>
